<svg xmlns="http://www.w3.org/2000/svg" viewBox="0 0 1000 1000">
  <metadata>
    Copyright 2024 (c) Detra (https://github.com/detra-lab). All rights reserved.
  </metadata>
  <style>
    :root {
      --foreground: #2E2F31;
    }

    @media (prefers-color-scheme: dark) {
      :root {
        --foreground: #F7FBFF;
      }
    }
  </style>
  <path fill="var(--foreground)"
    d="M704.615 666.175H725v94.365h-20.385v-13.59c-7.739 10.755-18.689 16.035-33.028 16.035-13.02 0-23.97-4.725-33.224-14.34-9.24-9.63-13.785-21.51-13.785-35.295s4.53-25.665 13.785-35.295c9.254-9.63 20.189-14.34 33.224-14.34 14.339 0 25.289 5.28 33.028 15.855v-13.395Zm-29.819 77.385c8.49 0 15.66-2.835 21.33-8.49 5.655-5.85 8.489-13.02 8.489-21.705 0-8.685-2.834-15.855-8.489-21.51-5.655-5.85-12.84-8.685-21.33-8.685-8.489 0-15.659 2.835-21.329 8.685-5.655 5.655-8.49 12.84-8.49 21.51 0 8.67 2.835 15.855 8.49 21.705 5.655 5.655 12.84 8.49 21.329 8.49ZM590.214 682.03c5.1-11.7 14.91-17.55 29.069-17.55v22.08c-7.739-.57-14.534 1.32-20.384 5.655-5.85 4.155-8.685 11.13-8.685 20.76v47.565H569.83v-94.365h20.384v15.855ZM551.86 685.81h-23.399v45.3c0 12.075 7.92 11.895 23.399 11.13v18.3c-31.138 3.78-43.783-4.725-43.783-29.445v-45.3h-17.369V666.16h17.369v-20.385l20.384-6.045v26.43h23.399V685.81ZM409.606 722.05c3.015 14.34 14.534 22.275 30.194 22.275 10.754 0 18.869-3.96 24.344-11.7l16.799 9.81C471.704 756.22 457.919 763 439.62 763c-15.285 0-27.749-4.725-37.184-13.965-9.435-9.435-14.16-21.33-14.16-35.67 0-14.34 4.725-25.86 13.965-35.295 9.255-9.63 21.329-14.34 35.864-14.34 13.784 0 25.094 4.905 33.974 14.535 8.864 9.63 13.394 21.51 13.394 35.295 0 2.07-.195 4.905-.75 8.49h-75.117Zm55.303-16.605c-2.835-15.285-13.59-23.22-26.984-23.22-15.105 0-25.664 8.865-28.499 23.22h55.483ZM355.037 628.435h20.385v132.12h-20.385v-13.59C347.298 757.72 336.348 763 322.008 763c-13.019 0-23.969-4.725-33.223-14.34-9.24-9.63-13.785-21.51-13.785-35.295s4.53-25.665 13.785-35.295c9.254-9.63 20.189-14.34 33.223-14.34 14.34 0 25.29 5.28 33.029 15.855v-51.15ZM325.218 743.56c8.49 0 15.66-2.835 21.33-8.49 5.654-5.85 8.489-13.02 8.489-21.705 0-8.685-2.835-15.855-8.489-21.51-5.655-5.85-12.84-8.685-21.33-8.685-8.489 0-15.659 2.835-21.329 8.685-5.655 5.655-8.49 12.84-8.49 21.51 0 8.67 2.835 15.855 8.49 21.705 5.655 5.655 12.84 8.49 21.329 8.49ZM629.945 313c-25.935-44.835-74.415-75-129.93-75h-150v150h75v75h75v75c82.845 0 150-67.155 150-150 0-27.315-7.305-52.935-20.07-75Zm-204.93 51h-51V262h126c41.4 0 78.165 20.085 101.16 51h-176.16v51Zm99 147.705V412h99.705c-9.735 50.265-49.44 89.97-99.705 99.705Zm-24-123.705v51h-51V337H615.26a126.205 126.205 0 0 1 10.755 51h-126Z" />
</svg>
