<svg xmlns="http://www.w3.org/2000/svg" viewBox="0 0 1000 1000">
  <metadata>
    Copyright 2023–Today (c) Detra (https://github.com/detra-lab). All rights reserved.
  </metadata>

  <style>
    :root {
      --foreground: #212529;
    }

    @media (prefers-color-scheme: dark) {
      :root {
        --foreground: #F8F9FA;
      }
    }
  </style>

  <g id="monogram">
    <path fill="#7400B8" d="M490 174H340v400h150c110.457 0 200-89.543 200-200s-89.543-200-200-200Z"/>
    <path fill="#48BFE3" d="M565 299c34.367 0 66.934 10.273 96.068 28.642C677 337.687 688.5 353.5 690 373c0 .111 0 .222-.001.333v.001c.001.222.001.444.001.666 0 110.457-89.543 200-200 200H340.77C350.298 420.012 447.05 299 565 299Z"/>
    <path fill="#80FFDB" d="M565 449c34.367 0 66.934-10.273 96.068-28.642C677 410.313 688.5 394.5 690 375c0-.111 0-.222-.001-.333v-.001c.001-.222.001-.444.001-.666 0-110.457-89.543-200-200-200H340.77C350.298 327.988 447.05 449 565 449Z" opacity=".6"/>
  </g>
  
  <g id="logotype">
    <path fill="var(--foreground)" d="M312 715.75V648h27v175h-27v-18c-10.25 14.25-24.75 21.25-43.75 21.25-17.25 0-31.75-6.25-44-19S206 778.75 206 760.5c0-18.5 6-34 18.25-46.75s26.75-19 44-19c19 0 33.5 7 43.75 21Zm-67.75 73.5c7.5 7.5 17 11.25 28.25 11.25s20.75-3.75 28.25-11.25C308.25 781.5 312 772 312 760.5s-3.75-21-11.25-28.5c-7.5-7.75-17-11.5-28.25-11.5s-20.75 3.75-28.25 11.5c-7.5 7.5-11.25 17-11.25 28.5s3.75 21 11.25 28.75ZM486.221 772h-99.5c4 19 19.25 29.5 40 29.5 14.25 0 25-5.25 32.25-15.5l22.25 13c-12.25 18.25-30.5 27.25-54.75 27.25-20.25 0-36.75-6.25-49.25-18.5-12.5-12.5-18.75-28.25-18.75-47.25 0-18.75 6.25-34.25 18.5-46.75 12.25-12.75 28.25-19 47.5-19 18.25 0 33.25 6.5 45 19.25s17.75 28.5 17.75 46.75c0 2.75-.25 6.5-1 11.25Zm-99.75-22h73.5c-3.75-20.25-18-30.75-35.75-30.75-20 0-34 11.75-37.75 30.75ZM571.822 698v26h-31v60c0 16 10.5 15.75 31 14.75V823c-41.25 5-58-6.25-58-39v-60h-23v-26h23v-27l27-8v35h31ZM619.531 698v21c6.75-15.5 19.75-23.25 38.5-23.25V725c-10.25-.75-19.25 1.75-27 7.5-7.75 5.5-11.5 14.75-11.5 27.5v63h-27V698h27ZM766.121 715.75V698h27v125h-27v-18c-10.25 14.25-24.75 21.25-43.75 21.25-17.25 0-31.75-6.25-44-19s-18.25-28.5-18.25-46.75c0-18.5 6-34 18.25-46.75s26.75-19 44-19c19 0 33.5 7 43.75 21Zm-67.75 73.5c7.5 7.5 17 11.25 28.25 11.25s20.75-3.75 28.25-11.25c7.5-7.75 11.25-17.25 11.25-28.75s-3.75-21-11.25-28.5c-7.5-7.75-17-11.5-28.25-11.5s-20.75 3.75-28.25 11.5c-7.5 7.5-11.25 17-11.25 28.5s3.75 21 11.25 28.75Z"/>
  </g>
</svg>
